/* XPM */
static char *_878fda7cb284a65c58377dcae553bf31Pv5sesTSWHNGLAB[] = {
/* columns rows colors chars-per-pixel */
"32 32 148 2 ",
"   c #1E1F22",
".  c #3C3932",
"X  c #007E00",
"o  c #35402E",
"O  c #344E31",
"+  c #2B7C2B",
"@  c #3C3D44",
"#  c #4B4948",
"$  c #474A54",
"%  c #4B4E58",
"&  c #4E515B",
"*  c #53555C",
"=  c #426D4B",
"-  c #437544",
";  c #417C44",
":  c #417C4A",
">  c #536359",
",  c #555964",
"<  c #5B5E62",
"1  c #5F6C66",
"2  c #5B606C",
"3  c #5C7365",
"4  c #65686D",
"5  c #657C6F",
"6  c #656973",
"7  c #6B6C73",
"8  c #696E7B",
"9  c #6C737B",
"0  c #6C7F7A",
"q  c #74757B",
"w  c #717F7E",
"e  c #79797B",
"r  c #008500",
"t  c #008B00",
"y  c #009400",
"u  c #089207",
"i  c #009C00",
"p  c #0D930C",
"a  c #128512",
"s  c #158B14",
"d  c #129412",
"f  c #139C13",
"g  c #1D911D",
"h  c #1B9A1B",
"j  c #00A300",
"k  c #00AB00",
"l  c #0DA30D",
"z  c #0FAD0F",
"x  c #00B300",
"c  c #00B800",
"v  c #0DB60D",
"b  c #0DB90D",
"n  c #12A412",
"m  c #18A317",
"M  c #12AC12",
"N  c #1EAF1D",
"B  c #12B612",
"V  c #12B912",
"C  c #1AB31A",
"Z  c #228521",
"A  c #2D8E2D",
"S  c #229722",
"D  c #249923",
"F  c #2A952A",
"G  c #289E28",
"H  c #348933",
"J  c #39843A",
"K  c #3A8C3B",
"L  c #329C31",
"P  c #24AA23",
"I  c #2BA32B",
"U  c #23BE23",
"Y  c #34A534",
"T  c #12C212",
"R  c #3E8840",
"E  c #438A41",
"W  c #4A944A",
"Q  c #4C8750",
"!  c #4E9D52",
"~  c #519A51",
"^  c #4FA450",
"/  c #5A8361",
"(  c #63866A",
")  c #68936A",
"_  c #678174",
"`  c #6D9177",
"'  c #6FA672",
"]  c #6E7382",
"[  c #7E7E81",
"{  c #7A7E8F",
"}  c #778182",
"|  c #7E8182",
" . c #7F8089",
".. c #7D8292",
"X. c #808285",
"o. c #828C8D",
"O. c #8B8C8D",
"+. c #848793",
"@. c #8A8C96",
"#. c #84899B",
"$. c #888E9F",
"%. c #989797",
"&. c #979898",
"*. c #9A9B9C",
"=. c #92A89A",
"-. c #9294A2",
";. c #9699A2",
":. c #A1A1A1",
">. c #AAABAD",
",. c #A8B2B2",
"<. c #B1B4B6",
"1. c #B7B8B8",
"2. c gray72",
"3. c #BBBDC2",
"4. c #B9BCCA",
"5. c #BEC1C2",
"6. c #C1C4C4",
"7. c #C8CCCE",
"8. c #CAD1CD",
"9. c #CECFD1",
"0. c #C9CBDC",
"q. c #D1D2D3",
"w. c #D1D3DB",
"e. c #DADEDF",
"r. c #D3D5E3",
"t. c #D6DAE2",
"y. c #D9DDE6",
"u. c #D7D9E8",
"i. c #D9DCEA",
"p. c #E1E5EE",
"a. c #E5EAEF",
"s. c #EAEBEC",
"d. c #E2E6F1",
"f. c #EBEFF2",
"g. c #EDF2F5",
"h. c #EFF4F9",
"j. c #F3F5F5",
"k. c #F3F6FA",
"l. c #F6FAFD",
"z. c #F8FDFF",
"x. c #F9FDFF",
"c. c #F8FCFC",
"v. c #FCFDFE",
"b. c #FCFEFF",
"n. c #FCFFFF",
"m. c #FEFFFF",
"M. c white",
"N. c #F9FAFB",
/* pixels */
"U B V n f B n n M V V V B V f M f n d d f M n M M B V V B B V U ",
"v i j t i c i i i i j k c j y k i y y i y k i y c x j t x x x v ",
"n i y y i i i y r y t j j j y y i j j j j r j i x c j y i c t M ",
"f y y i k k k i t k k k y i t k j k k y y i k k j t x y i y t f ",
"M k j x x c c j y j y j i t k k j i i j x c k k j r i y i r y f ",
"V x k k t k x i i y i i i y j y i X t t j k j i j i j k j y k B ",
"B y t y y j y j j k i i k y x k j y k i j y j r i j c k k c j V ",
"B j i t y i t i y X y i s + ~ W ^ Z z x c j j j y j k j y j y B ",
"B j k k j t i i i t l A 5 5.q.9.q.<./ G j y k j y k y i r i j B ",
"B t i x r y j i y m ) , 6 b.k.k.x.g.& 3 H u i y j j i j j c x V ",
"B y y y i k x x c R 7.5.<.a.g.g.k.y.>.8.=.F j j i y c k j c x B ",
"V j x i i k k x l ' g.k.k.p.s.s.f.y.l.c.t.! v k t j x i i y i B ",
"B i c i i t r u J ,.z.a.l.3.* < 7 s.g.f.l.9 F y t j i i t t y M ",
"B t i y i i y s - , g.b.j.4 #.8 2 *.b.x.e.% K t j k j k y j k V ",
"B i j i r j k L 0 { O.1.O.8 *   +.9 *.2.e #.= x c c k j c x j B ",
"V i i j y j y I 0 ..e :.X.8 % $ @ 6 @.:.| $.: x c k j t j j y n ",
"M i i r y j k p ; 8 a.b.N.q , ] $ >.v.z.g.2 Y x j y y j k X r M ",
"f j t y y x x u H -.u.s.k.w.*.%.>.f.g.f.d.} N j i y r y i y i T ",
"V x k c i k c i l ( 0.i.p.f.b.b.b.i.k.l.4.Q j i i t t j x x x V ",
"B k y j t y k i i S ` @.+.y.t.t.t.4. .;./ m j j r r r j j x x B ",
"V j t t t k y y t t g . # 0.r.0.i.4.. O f k y j t i y i i k c B ",
"B i x j t j k i y i y g - 4 o.} o.> E d i t t t y k t y i x x B ",
"M t j i y r i t i j i i y h D S P C k r y k j i y y y y k x k V ",
"B i j t i t t t j y X i c j i i j k j j x k k i y i y y k j i V ",
"V y i y y r j i y i r y j i y t y t y c k k k n f i y i t j j V ",
"V j j j y t j i j t t i i j t y t t r i j y i j k k i y j k x V ",
"n j c j y y i i j r i j i x x k y y y i j y y y c x i x j j x V ",
"f y j i i r y k j i j i y j t t t t k k i y y t j j i y i y x B ",
"n j i j t t t j i i y y i k r r r y j y j r t i i t y r j k i f ",
"M k c c i y k y t j k y i j r y y i k y i j j k y i i j y j y n ",
"b i y i t y k i y i j i i y i k x j j k x c i k j k y i r j j l ",
"U M s d n M n d f M n n a d n B B n f f M V f f B B M M B V B U "
};
