/* XPM */
static char *_15080dc02c64924a8bf6887d8d97b12tnwpQkoGVudkh0rH[] = {
/* columns rows colors chars-per-pixel */
"32 32 164 2 ",
"   c #191A19",
".  c #232424",
"X  c #272827",
"o  c #262728",
"O  c #272829",
"+  c #2A2C2C",
"@  c #353635",
"#  c #363837",
"$  c #3C3C3B",
"%  c #004713",
"&  c #004E19",
"*  c #006800",
"=  c #0E6F0F",
"-  c #007300",
";  c #007C01",
":  c #0E790E",
">  c #186D19",
",  c #0F7510",
"<  c #097810",
"1  c #117413",
"2  c #187315",
"3  c #147A14",
"4  c #187A15",
"5  c #1B7318",
"6  c #137820",
"7  c #007033",
"8  c #3F4041",
"9  c #454646",
"0  c #4D5A4F",
"q  c #555144",
"w  c #575A4F",
"e  c #5E5B5C",
"r  c #635F5D",
"t  c #4A7857",
"y  c #45715E",
"u  c #5F5F60",
"i  c #467661",
"p  c #467E63",
"a  c #636362",
"s  c #696664",
"d  c #6C6967",
"f  c #6D6B6A",
"g  c #716E6C",
"h  c #75716E",
"j  c #78726E",
"k  c #757473",
"l  c #7A7673",
"z  c #7D7976",
"x  c #7D7C7A",
"c  c #817B77",
"v  c #827E7C",
"b  c #008400",
"n  c #008B00",
"m  c #018D0A",
"M  c #009400",
"N  c #009C00",
"B  c #008617",
"V  c #008D14",
"C  c #008D18",
"Z  c #138313",
"A  c #128812",
"S  c #009317",
"D  c #009B17",
"F  c #009718",
"G  c #019B1C",
"H  c #129512",
"J  c #129C12",
"K  c #00A300",
"L  c #00AA00",
"P  c #00A40E",
"I  c #0DA50D",
"U  c #00B300",
"Y  c #0DB60D",
"T  c #0DB90D",
"R  c #00A41F",
"E  c #12A412",
"W  c #12AC12",
"Q  c #12B612",
"!  c #12B912",
"~  c #009726",
"^  c #008730",
"/  c #009634",
"(  c #23BE23",
")  c #468366",
"_  c #4A8567",
"`  c #478669",
"'  c #4A856B",
"]  c #4A8A6C",
"[  c #84817E",
"{  c #858281",
"}  c #898583",
"|  c #8C8987",
" . c #8E8C89",
".. c #928D8A",
"X. c #94908F",
"o. c #9B938F",
"O. c #8D8F91",
"+. c #969594",
"@. c #9B9693",
"#. c #9E9995",
"$. c #A29A95",
"%. c #A39D9A",
"&. c #A89F99",
"*. c #A6A19D",
"=. c #AAA39D",
"-. c #A4A5A5",
";. c #ACA5A2",
":. c #AEA9A5",
">. c #A7A8A8",
",. c #AAABAB",
"<. c #B0A5A1",
"1. c #B1AAA7",
"2. c #B4AEAA",
"3. c #ACB6AE",
"4. c #A8B9AA",
"5. c #B6B1AC",
"6. c #B9B3AE",
"7. c #B5B4B4",
"8. c #BBB5B0",
"9. c #B2BBB2",
"0. c #B8B8B7",
"q. c #B3B6B8",
"w. c #B9B7B8",
"e. c #B3BAB9",
"r. c #BBBBBB",
"t. c #C0BEBE",
"y. c #BDC5BB",
"u. c #C1C4BE",
"i. c #C9BDC4",
"p. c #C2C4C4",
"a. c #C4C5C6",
"s. c #C6C7C8",
"d. c #CBCDCD",
"f. c #D9C1CE",
"g. c #D2CFCD",
"h. c #CDCFD0",
"j. c #DEC5D2",
"k. c #D8CCD3",
"l. c #CED0D2",
"z. c #D2D4D5",
"x. c #D3D4D5",
"c. c #D6D7D9",
"v. c #D9D7D8",
"b. c #D7D9DA",
"n. c #D8D9DA",
"m. c #DADBDD",
"M. c #DADCDD",
"N. c #DDDEDE",
"B. c #E0C7D4",
"V. c #E3CAD7",
"C. c #E5CDDA",
"Z. c #E1D3DD",
"A. c #E6E3DC",
"S. c #EDD8E6",
"D. c #DEE1E2",
"F. c #ECE3E6",
"G. c #E8EDE7",
"H. c #EAECED",
"J. c #EEEFF0",
"K. c #F4F4F5",
"L. c #F7F6F9",
"P. c #FFF4FE",
"I. c #FDFBFD",
"U. c white",
/* pixels */
"( Q ! E J ! E E W ! ! ! Q ! J W J E H H E W E W W Q ! Q ! Q ! ( ",
"Y N K n N U N N N N K L U K M K N N M N M L M M U U K n U U U Y ",
"E N M M N N N M b M m K K K M M N K K K K b N N U U K M N U n W ",
"J M M N L L L N n L L L N M M L K L L M M N L U K M U M N M n J ",
"W L K U U U U L M N M K N n L L N N N K U U L L K b N M K ; M E ",
"! M n n - n M ; b ; ; b ; ; b ; b * - - n n b ; b ; b n b ; b W ",
"! a a.M.n.z.h.n.b.M.b.n.m.N.n.n.c.n.z.c.z.b.c.c.n.m.z.N.M.z.>.1 ",
"Q p.U.7.r.7.7.r.t.r.r.r.t.r.p.r.r.r.p.7.r.7.r.5.0.7.w.,.7.N.U.1 ",
"Q y.r.  . d >.  $ + # O $ O 9 + 9 X 9 O 8 o 9 O @ 9 q.. X f L.3 ",
"Q 3.p.z o.>.N.j #. .@.[ $.[ %.[ -.x *.z #.k #.c @.} D.f #.+.H.3 ",
"Q 9.p.l ..-.d.c -.@.-.X.5...5.} :.[ 6.} ;.{ 1.} %.| l.h %.+.H.3 ",
"! 9.r.} =.-.a.j =...&.| -.| 1.[ ;.[ 2.[ ;.{ <.[ $.| l.g $.+.H.3 ",
"Q 9.p.d v -.s.j =...%.} =.} 1.[ =.[ 1.v &.v -.v @.} l.d o.+.H.1 ",
"W 9.u...<.>.p.l :.#.;.@.2. .8. .6.} 6.} 1.} 5.| ;. .d.h <.@.H.1 ",
"Q 9.a.h [ >.s.c :.@.-...2...6. .6.} 8.{ :.| 5.| *. .d.h &.+.H.4 ",
"! 9.a...=.-.s.g %...&.} -.} ;.[ *.v 1.v =.{ :.[ #.} l.d #.+.H.5 ",
"W 9.a.d z *.d.j &.o.&.} 1. .:.{ 1.[ 6.} 1.} 2.} &. .h.f &.@.J.2 ",
"E 9.p...;.:.d.j &...$.} 1. .1.{ 5.[ 6.[ 1.{ 2.[ #.{ z.l =.+.H.3 ",
"Q 9.p.d ..x p.r l d c d ' c v s [ s { s [ s [ s h v q.e ;.O.J.3 ",
"! 0.r.l z $ I.S.C.C.C.C.V.C.j.C.j.C.i.C.j.V.f.C.B.P.g.q c } K., ",
"! 3.v.O.k F.q.t p _ ' _ ` ) ] ' ' p _ ) ) i y i ] w Z.A.z +.H.: ",
"Q 9.0.u U.p.% ^ / G C C C S B B D R G S F F F V V P 6 S.L.,.N.1 ",
"W e.r.i.8.& ^ ~ M K N N M N N M U U L b N L K N M M M > k.k.m.= ",
"Q 4.u.0 7 / m n K M b M U K N N K L K K U L L N M N M M < ..G.: ",
"! M N M M b N N M N b M K N M n n n N U L L L N M N M N n K N ! ",
"! K K K M n L N K b M N N K n M n n b N K n N K L L M M L L U ! ",
"E L U K N M N N N n K K N U U L N M M N K M M M U U N U N K U Q ",
"J M K N N b M K K N K N n K n n n n L L N N N n L K K M N N U Q ",
"E L N K n n n K N N M M N L b n b M K M K b n N N n M b K L N J ",
"E L U U N M L M n K L M N K b M M N L M N K K L M N N K N K M E ",
"T K M K n M L N M N K N N M M L U K K L U U N L K L N N b K N I ",
"( W A H E W E H J W E E Z H E Q ! E J J W ! J J Q ! W W W ! ! ( "
};
