/* XPM */
static char *cdb7cba3ca914237f8777f00f9790078KjXBCOjh36ZNPT1x[] = {
/* columns rows colors chars-per-pixel */
"32 32 113 2 ",
"   c #007A00",
".  c #007B00",
"X  c #007C00",
"o  c #007E00",
"O  c #007F00",
"+  c #008000",
"@  c #008100",
"#  c #008200",
"$  c #008300",
"%  c #008400",
"&  c #008500",
"*  c #008600",
"=  c #008700",
"-  c #008800",
";  c #008900",
":  c #008A00",
">  c #008B00",
",  c #008C00",
"<  c #008D00",
"1  c #008E00",
"2  c #008F00",
"3  c #009000",
"4  c #009100",
"5  c #009200",
"6  c #009300",
"7  c #009400",
"8  c #009500",
"9  c #009600",
"0  c #009700",
"q  c #009800",
"w  c #009900",
"e  c #009A00",
"r  c #009B00",
"t  c #009C00",
"y  c #009D00",
"u  c #009E00",
"i  c #009F00",
"p  c #128512",
"a  c #128812",
"s  c #129312",
"d  c #129412",
"f  c #129612",
"g  c #129712",
"h  c #129812",
"j  c #129912",
"k  c #129A12",
"l  c #129B12",
"z  c #129D12",
"x  c #129E12",
"c  c #129F12",
"v  c #00A000",
"b  c #00A100",
"n  c #00A200",
"m  c #00A300",
"M  c #00A400",
"N  c #00A500",
"B  c #00A600",
"V  c #00A700",
"C  c #00A800",
"Z  c #00A900",
"A  c #00AA00",
"S  c #00AB00",
"D  c #00AC00",
"F  c #00AD00",
"G  c #00AE00",
"H  c #00AF00",
"J  c #0DA50D",
"K  c #00B000",
"L  c #00B100",
"P  c #00B200",
"I  c #00B300",
"U  c #00B400",
"Y  c #00B500",
"T  c #00B600",
"R  c #00B700",
"E  c #00B800",
"W  c #0DB40D",
"Q  c #0DB70D",
"!  c #0EB70C",
"~  c #0DB90D",
"^  c #12A012",
"/  c #12A112",
"(  c #12A212",
")  c #12A312",
"_  c #12A412",
"`  c #12A512",
"'  c #12A612",
"]  c #12A712",
"[  c #12A812",
"{  c #12A912",
"}  c #12AA12",
"|  c #12AB12",
" . c #12AC12",
".. c #12AD12",
"X. c #12AE12",
"o. c #12AF12",
"O. c #12B012",
"+. c #12B212",
"@. c #12B312",
"#. c #12B412",
"$. c #12B512",
"%. c #12B612",
"&. c #12B712",
"*. c #11B811",
"=. c #12B812",
"-. c #12B912",
";. c #12BA12",
":. c #12BB12",
">. c #1CB51C",
",. c #23BC23",
"<. c #23BD23",
"1. c #23BE23",
"2. c #12C212",
/* pixels */
"<.$.;.` l $.` ) X.:.;.$.;.;.x { x ` d d x X.` X.` $.$.$.;.$.;.,.",
"W w i > i T i w 8 i i H T i 8 C i 8 1 i 6 C w 8 T T V 1 I I I W ",
"` i 6 8 i w w w % w > v v V 6 8 i v v V v > i i I I v 8 i T 1 ` ",
"l 8 8 i C C V i 1 C C H w w 1 C V V H 8 6 i C I v 6 T 8 w 8 1 x ",
"X.C v T I T T V 8 v 8 C 8 > I C i w 8 V I I C C C % i w i $ 6 ) ",
";.I H C > H I w w 8 w w w w v 6 i X 6 1 V H i i v 8 V C i 8 C $.",
"$.6 1 6 8 V 8 v v I w i H 8 I V v 8 H w V 8 i % i v I C C T v ;.",
";.v 8 1 8 w > i 8 X 6 w 6 i w i I T I H I v V v w v I v w V 8 O.",
"$.v H H V > w 8 w 1 v 1 w 6 % 1 w T v v C > H C 8 C 8 i % i i $.",
"O.> w I % 8 C i 8 v H H C 6 v C i v V 1 8 w w 6 v V w C C T I ;.",
"$.8 8 6 i C T I I T I H i 6 I 8 H 8 w 6 H v V v w w I C V T I $.",
";.V T w 8 H C H i T v w 6 8 6 8 i H V H T I I V 1 v I w w w w $.",
"O.v I i w 6 % 6 > v w i i v 6 V C i 1 6 8 8 6 6 1 v 8 i > > 8 X.",
"X.> i 8 w i 8 % 6 w 8 1 C I i C w > X > w 8 8 6 v H C H 6 v H ;.",
"$.i v w % v C w 6 w v V v V v % v 6 i w 8 8 w I T T C v T I v $.",
":.v i i 1 C 8 V $ 1 i V C 6 6 w v I V H C v H I I I v 1 C V 1 ` ",
"X.w w % 6 V V 6 1 C I 8 $ C i w 8 1 H T V w I I V 6 8 V C . % { ",
") v > 6 6 H I 8 w C V 1 1 i 8 8 i $ 8 V % 8 H i w 8 % 8 i 8 i 2.",
"$.T H T i V E v V C C C w C i 6 V v 6 . . i v w w 1 1 v I I I $.",
";.C 8 v 1 8 C i w C E v 8 I T 6 i i v 6 6 C v V % % % V V T I $.",
";.V > 1 1 C 8 6 6 > H 8 1 i C 6 v 8 8 w C C 6 v 1 w 8 w w H I $.",
"O.i H i 6 v H 8 6 w 6 6 > > % $ C v w 6 w 6 1 > 6 C 1 8 w I T $.",
"X.1 V i 1 $ i 1 w v w w 6 i w 8 I T V $ w C V i 8 8 8 8 C I H $.",
"$.8 v > i 1 % > V w X w E v i i C H v V H H C w 8 w 8 6 C V w ;.",
";.6 w 8 8 % v w 8 w % 6 V w 8 > 6 > 8 T H C C i w i 8 i > v v :.",
";.V V V 6 > V i V % 6 i i v > 6 > > % w v 1 i v H C 8 6 V C H ;.",
") V T v 8 8 i w i % v v w T I C 8 8 6 i V 8 8 8 T I i I V v T $.",
"l 8 v w i % 6 V V i v i 1 v 1 > 1 1 H C w w 8 > V v i 6 w w T O.",
") C v v 1 1 > v i w 6 8 w C % > X 8 V 6 v > 1 i i > 6 % V H w ) ",
"` C T T w 6 H 6 1 v V 8 i C % 8 8 v C 6 w V i C 6 w v v 8 v 1 ) ",
"~ v 8 i 1 w C v 8 i V w w 6 8 C I V v I I T i H v C 8 i % v v J ",
"<.X.a d ` { x d x { ) ` p d { $.$.` l d { :.d x $.;.X.X.O.;.~ >."
};
