/* XPM */
static char *_30f82162a7f4ef2bdf63a90827bc718121obVZxFRjhQxYK[] = {
/* columns rows colors chars-per-pixel */
"32 32 204 2 ",
"   c #000003",
".  c #00000F",
"X  c #000015",
"o  c #00001D",
"O  c #030915",
"+  c #140E1F",
"@  c #221019",
"#  c #003D08",
"$  c #002618",
"%  c #00341A",
"&  c #003E13",
"*  c #000229",
"=  c #000D2D",
"-  c #040823",
";  c #08172B",
":  c #000333",
">  c #000939",
",  c #061737",
"<  c #171D33",
"1  c #151C2A",
"2  c #2B1B26",
"3  c #08262C",
"4  c #013827",
"5  c #0F253D",
"6  c #193E32",
"7  c #17343A",
"8  c #163030",
"9  c #2E2228",
"0  c #37272C",
"q  c #362934",
"w  c #203F32",
"e  c #352F35",
"r  c #46110E",
"t  c #4D1F1C",
"y  c #531D1A",
"u  c #66261C",
"i  c #501F21",
"p  c #46272A",
"a  c #552925",
"s  c #502D32",
"d  c #553839",
"f  c #483C32",
"g  c #68312C",
"h  c #713126",
"j  c #793B34",
"k  c #653A39",
"l  c #014819",
"z  c #0B5C1F",
"x  c #006109",
"c  c #007D00",
"v  c #04621D",
"b  c #046A1C",
"n  c #11661A",
"m  c #0B7D1C",
"M  c #027918",
"N  c #094E2A",
"B  c #1E5F31",
"V  c #194B2F",
"C  c #234E32",
"Z  c #235F34",
"A  c #245634",
"S  c #355D3B",
"D  c #0D6623",
"F  c #116A2A",
"G  c #106321",
"H  c #0C7222",
"J  c #1A7A28",
"K  c #1B6733",
"L  c #1B7432",
"P  c #1D7534",
"I  c #23632C",
"U  c #21742D",
"Y  c #217D2E",
"T  c #277236",
"R  c #286535",
"E  c #764639",
"W  c #497F3C",
"Q  c #040847",
"!  c #021341",
"~  c #0D1B58",
"^  c #062844",
"/  c #16274B",
"(  c #192D54",
")  c #162C56",
"_  c #2D3148",
"`  c #253753",
"'  c #00046D",
"]  c #0B1C60",
"[  c #00037F",
"{  c #041B78",
"}  c #062467",
"|  c #142564",
" . c #182A6B",
".. c #15326D",
"X. c #1A3573",
"o. c #243B79",
"O. c #203573",
"+. c #453E48",
"@. c #422C60",
"#. c #384555",
"$. c #315150",
"%. c #2B6C40",
"&. c #27407D",
"*. c #3F5774",
"=. c #394D64",
"-. c #5E545E",
";. c #4C5245",
":. c #7A4B4B",
">. c #546D4B",
",. c #4B6A43",
"<. c #404C64",
"1. c #45516B",
"2. c #4F6F73",
"3. c #56607A",
"4. c #4B6A6C",
"5. c #86493B",
"6. c #994C38",
"7. c #94533F",
"8. c #B55537",
"9. c #855B49",
"0. c #9B5B45",
"q. c #AD5943",
"w. c #AC5A46",
"e. c #B15B43",
"r. c #976554",
"t. c #BE6D51",
"y. c #B1725A",
"u. c #9E6D60",
"i. c #A56B62",
"p. c #C87257",
"a. c #D07C58",
"s. c #C96948",
"d. c #EE7C5B",
"f. c #008600",
"g. c #008B00",
"h. c #0A8B0C",
"j. c #058B0A",
"k. c #009500",
"l. c #009B00",
"z. c #09940B",
"x. c #099B0A",
"c. c #079908",
"v. c #0C8D10",
"b. c #118914",
"n. c #158D19",
"m. c #158917",
"M. c #0D9117",
"N. c #129412",
"B. c #129C12",
"V. c #149119",
"C. c #00A300",
"Z. c #00AB00",
"A. c #0BA80C",
"S. c #00B300",
"D. c #00B800",
"F. c #0DB70D",
"G. c #12A412",
"H. c #12AC12",
"J. c #1BA31B",
"K. c #12B612",
"L. c #12B912",
"P. c #178922",
"I. c #199322",
"U. c #20822F",
"Y. c #219A2C",
"T. c #268735",
"R. c #2B9734",
"E. c #23BE23",
"W. c #24A52B",
"Q. c #12C212",
"!. c #E2835E",
"~. c #CC8766",
"^. c #D48668",
"/. c #FA976D",
"(. c #FF9770",
"). c #E48F68",
"_. c #FFA874",
"`. c #021581",
"'. c #2D478A",
"]. c #2B4685",
"[. c #304C8C",
"{. c #294B93",
"}. c #324D93",
"|. c #2D5699",
" X c #656A85",
".X c #656096",
"XX c #677088",
"oX c #486CB8",
"OX c #8B8E90",
"+X c #919799",
"@X c #8A92AF",
"#X c #969CBC",
"$X c #99A0A0",
"%X c #9FA3BF",
"&X c #B6B7B6",
"*X c #FFB081",
"=X c #FFC18C",
"-X c #ACAFCA",
";X c #B5BAD4",
":X c #D8DADE",
">X c #C6C9D9",
",X c #E3D5D7",
"<X c #CCD1E7",
"1X c #FEFEFE",
/* pixels */
"E.K.L.H.B.K.G.G.H.L.L.L.L.L.B.G.B.G.N.N.B.H.G.H.G.K.K.K.K.K.L.E.",
"F.l.l.g.l.D.l.l.l.l.l.Z.D.C.k.Z.l.l.k.l.k.Z.l.k.S.D.Z.g.S.S.S.F.",
"G.l.k.k.l.l.l.k.f.k.f.C.C.Z.k.x.4 O 4 C.C.g.l.l.S.S.C.k.l.D.g.H.",
"B.k.k.l.Z.Z.Z.l.g.Z.Z.Z.l.k.b.6 q -.+.$.V.l.Z.S.Z.g.S.k.l.k.g.B.",
"H.Z.C.S.S.S.D.Z.k.C.k.Z.k.g.M @ /.*X=Xr.v D.Z.Z.Z.f.l.k.l.c k.G.",
"L.S.Z.Z.g.Z.S.k.l.k.l.l.l.V.2 q.y.r.a.+.H Z.l.l.C.k.Z.Z.C.k.Z.K.",
"K.k.g.k.k.Z.k.C.C.Z.k.l.Z.c.S 5.^.u.p.q H k.l.f.l.l.D.Z.Z.D.C.K.",
"K.C.k.g.k.l.g.l.k.c k.c.j.c.m + p.(.d.9.m C.Z.C.k.C.Z.C.k.C.k.K.",
"K.C.Z.Z.C.f.l.z.m H U.` ( ( , @ s j f T.Z.g.Z.Z.k.Z.k.l.g.l.C.K.",
"K.g.l.S.f.c.P ;.9.E 5 oXoXoX|.q a X % k.k.k.P K l.Z.k.Z.Z.S.S.K.",
"K.k.k.k.l.A 7.t.a.s., } O., o.|.e , ! T.Z.I 0.0.V k.D.Z.Z.D.S.L.",
"K.Z.S.l.g.;./.s - 1 ; , = = ~ '.{.].> %.S.6 p.q.< C.S.k.k.k.k.K.",
"K.l.D.l.l.;.5.F z.x.x.T * | o.O.{.].  P k.V X O m.C.l.l.g.f.k.H.",
"H.g.l.k.k.;.:.J k.l.k.U :  .'.].'.X.0 ,.>.6.3 h.C.Z.Z.Z.k.Z.Z.L.",
"K.l.C.c.T ^.0.L k.k.Z.J : | '.].}.} 9 !.!.u T S.D.S.Z.C.D.S.C.K.",
"L.C.l.b E _.e Y.f.g.l.Y : | &.[.X.7 C a y A Z.S.D.Z.l.g.Z.C.k.G.",
"H.l.l.z a g N k.f.Z.S.U > ~  .}.} V Z.T.L l.S.S.Z.k.k.Z.Z.c f.G.",
"B.C.g.j.Z C A.k.l.Z.Z.P - * * * * 3 c.Z.f.k.Z.C.l.k.f.k.l.k.l.Q.",
"L.S.Z.D.l.Z.D.l.C.Z.Z.L _ $X$XOXOX3 # L c k.C.l.l.f.g.l.S.S.S.K.",
"L.Z.k.l.h.h.Z.l.k.Z.S.z  X1X1X1X1X:X&X=.D Z.l.C.f.f.f.Z.Z.D.S.K.",
"L.Z.f.j.5 * b.k.k.f.Z.P.#.#X:X<X1X1X1Xp a J k.C.g.k.l.k.k.Z.S.K.",
"K.l.W.^ [ `.; G k.l.k.g.S ` XX;X>X1.-.s./.y.W b.k.Z.g.k.l.S.D.K.",
"K.n ! ' @.Q ) 3.N n l.V.4.@X=.;.1.`   2 p _.E M k.k.k.k.Z.Z.Z.K.",
"K.% = , 9 X =.>X:.r T F , -X%X X= $.V.V.Z j ).>.k.l.k.k.Z.Z.l.L.",
"L.j.h.h.h.b.R.2.i.8.k 8 a g 1.#X7 b.k.D.Z.7 ,X.XP.l.k.l.g.C.l.L.",
"L.Z.Z.C.k.g.Z.l.V y e.E w.h X 6 n.g.g.k.C.Z ( ' ..A.l.k.J.J.S.L.",
"G.Z.D.C.k.k.l.l.k.K p e.6.p I.Z.k.k.k.C.C.c.R ^ { $.J J ) ) L L.",
"B.k.C.k.l.f.k.Z.Z.l.T.0 2 R.g.g.g.g.Z.Z.k.k.k.I Q ~ - X.oX}.= K.",
"G.Z.l.C.g.k.g.l.k.l.k.z.z.Z.f.f.f.k.Z.g.l.g.g.x.; > ~ / , $ I.G.",
"G.Z.D.D.l.g.Z.k.g.Z.Z.k.k.Z.f.k.k.l.Z.k.k.Z.C.Z.z & l l x C.g.G.",
"F.l.k.l.g.l.Z.C.k.k.Z.k.l.k.k.Z.Z.Z.C.Z.S.S.l.Z.C.Z.l.l.f.C.C.G.",
"E.H.b.N.G.H.B.N.B.H.G.G.m.N.H.K.K.G.B.B.H.L.B.B.K.K.H.H.H.L.L.E."
};
