/* XPM */
static char *eb60c36a04064871eb3aa95054b2b826kCMnNLZgV9XtkDqD[] = {
/* columns rows colors chars-per-pixel */
"32 32 208 2 ",
"   c #090902",
".  c #141A05",
"X  c #131208",
"o  c #2A021E",
"O  c #162811",
"+  c #372708",
"@  c #2D3709",
"#  c #323C0A",
"$  c #292D1A",
"%  c #0B1B21",
"&  c #2C0C25",
"*  c #290B3A",
"=  c #36043C",
"-  c #032E3C",
";  c #13383A",
":  c #213720",
">  c #373425",
",  c #453513",
"<  c #51103C",
"1  c #4E312B",
"2  c #3A410A",
"3  c #364614",
"4  c #16453C",
"5  c #2F5036",
"6  c #414705",
"7  c #595000",
"8  c #4C6412",
"9  c #546612",
"0  c #465735",
"q  c #585735",
"w  c #576237",
"e  c #697031",
"r  c #280048",
"t  c #340647",
"y  c #371556",
"u  c #243847",
"i  c #460B47",
"p  c #4B124B",
"a  c #540359",
"s  c #680E5E",
"d  c #522B4F",
"f  c #623B5C",
"g  c #530D72",
"h  c #562672",
"j  c #124C50",
"k  c #3B5449",
"l  c #235C54",
"z  c #1D6450",
"x  c #277046",
"c  c #2A6B56",
"v  c #297257",
"b  c #317D68",
"n  c #4A5743",
"m  c #515144",
"M  c #465D59",
"N  c #5D5E52",
"B  c #604B4D",
"V  c #566B4A",
"C  c #547552",
"Z  c #5C7556",
"A  c #676553",
"S  c #6B6C56",
"D  c #74765C",
"F  c #755569",
"G  c #716F6A",
"H  c #6A7769",
"J  c #747467",
"K  c #787872",
"L  c #813E7D",
"P  c #807D50",
"I  c #826F6E",
"U  c #817A66",
"Y  c #748534",
"T  c #33845A",
"R  c #358969",
"E  c #399173",
"W  c #5C8258",
"Q  c #728D4F",
"!  c #4C9174",
"~  c #688D6A",
"^  c #748975",
"/  c #789675",
"(  c #4EA67B",
")  c #74B378",
"_  c #4FDE7A",
"`  c #B2B91B",
"'  c #BDC42F",
"]  c #C9CE13",
"[  c #D7D925",
"{  c #C8CB32",
"}  c #DCDA37",
"|  c #E1DF2A",
" . c #DCE426",
".. c #DDE437",
"X. c #E4E92B",
"o. c #EFF827",
"O. c #F1F92C",
"+. c #EAEE36",
"@. c #F6F83A",
"#. c #F5FC3B",
"$. c #86904D",
"%. c #A4B556",
"&. c #848C75",
"*. c #99BB74",
"=. c #A7B573",
"-. c #D3BD68",
";. c #BFC94B",
":. c #ACCA6A",
">. c #D2D14A",
",. c #D9E146",
"<. c #DBE354",
"1. c #F5FD48",
"2. c #F3F752",
"3. c #CBD669",
"4. c #D7D965",
"5. c #CDD975",
"6. c #DDE979",
"7. c #F2ED78",
"8. c #7C3C8F",
"9. c #6E7297",
"0. c #777490",
"q. c #911E9A",
"w. c #833B95",
"e. c #912FAF",
"r. c #873BAC",
"t. c #9437B6",
"y. c #8C5A9E",
"u. c #877089",
"i. c #9442A9",
"p. c #9558A1",
"a. c #9647B9",
"s. c #8B52B0",
"d. c #8A67B3",
"f. c #A81FC8",
"g. c #9E37C3",
"h. c #A437CD",
"j. c #B53DCD",
"k. c #A727D5",
"l. c #B529D8",
"z. c #AC39D5",
"x. c #B434DA",
"c. c #AA3EE4",
"v. c #BA3AE6",
"b. c #C03AEC",
"n. c #9D48C3",
"m. c #995EC7",
"M. c #AC49D7",
"N. c #B343D7",
"B. c #AE4CE3",
"V. c #BC48E4",
"C. c #578983",
"Z. c #4B9984",
"A. c #489B93",
"S. c #589392",
"D. c #6E9492",
"F. c #679A98",
"G. c #4BA68C",
"H. c #56AD8F",
"J. c #68A487",
"K. c #63AA95",
"L. c #61BA95",
"P. c #7EB996",
"I. c #7A9BA0",
"U. c #74A7A1",
"Y. c #7CC28A",
"T. c #84AC86",
"R. c #98AC8F",
"E. c #AAA888",
"W. c #839BA1",
"Q. c #B385B5",
"!. c #94B0AF",
"~. c #CBBC9B",
"^. c #D18CBF",
"/. c #D2B4AE",
"(. c #93C8AA",
"). c #A8CCA0",
"_. c #DBC992",
"`. c #E9D589",
"'. c #E8DF9B",
"]. c #FDFA82",
"[. c #FCF998",
"{. c #D4C2AB",
"}. c #CAD6B4",
"|. c #D1D6BA",
" X c #EED0A0",
".X c #E7DEBD",
"XX c #EDE6AF",
"oX c #FCF5A3",
"OX c #FCE5BC",
"+X c #FEF2B5",
"@X c #8F97C4",
"#X c #BA9DC2",
"$X c #9BABD2",
"%X c #B8F2CC",
"&X c #DBD3D3",
"*X c #E5D6C6",
"=X c #F0D2CE",
"-X c #D9E8C8",
";X c #CFF6D4",
":X c #FCF2C6",
">X c #EBECD1",
",X c #F8ECD6",
"<X c #F5FDDE",
"1X c #FED0EE",
"2X c #F5E4EA",
"3X c #E8F7E6",
"4X c #FEF7EC",
"5X c #FAF4FB",
/* pixels */
"_ _ _ _ _ _ _ _ _ _ _ _ _ _ _ _ _ _ _ _ _ _ _ _ _ _ _ _ _ _ _ _ ",
"_ _ _ _ _ _ _ _ _ _ _ _ _ _ _ _ _ _ 5 _ _ _ _ _ _ _ _ _ _ _ _ _ ",
"_ _ _ _ _ _ _ _ _ _ _ _ _ : 0 _ _ _ 3 @ _ _ _ _ _ _ _ _ _ _ _ _ ",
"_ _ _ _ _ _ _ _ _ _ _ _ _ O *.@ @ 2 %.:.9 _ _ _ _ _ _ _ _ _ _ _ ",
"_ _ _ _ _ _ _ _ _ _ _ _ _ @ 3.{ ' ` { ..;.8 _ _ _ _ _ _ _ _ _ _ ",
"_ _ _ _ _ _ _ _ _ _ _ _ _ @ <.1.#.#.#.#...>.9 ) _ W _ _ _ _ _ _ ",
"_ _ _ _ _ _ _ _ _ _ _ @ @ # <.1.#.X.X.#. ...3.Y Q Q W _ _ _ _ _ ",
"_ _ _ _ _ _ _ _ _ _ _ 3 $.6 2.X.#.[ +.@.o. .<.;.5.Y w _ _ _ _ _ ",
"_ _ _ _ _ _ _ _ _ _ ) # 6.>.@.O.1.| +.@.o.o.+.2.2.Y O . C _ _ _ ",
"_ _ _ _ _ _ _ _ _ Y.  2 3.{ ] O.2.} } [ ] [ } ,.,.3.e V _ _ _ _ ",
"_ _ _ _ _ _ _ _ _ T.2 =.  7 { } >.7.[.].].].4.4.:.$.Z _ _ _ _ _ ",
"_ _ _ _ _ _ _ _ _ ~ q $., OX-.{ `.`.'.+XoX[.oX'.e w _ _ _ _ _ _ ",
"_ _ _ _ _ _ _ _ _ _ Y.  , :X`.-.`., + ~.+XXXXXP   ^ _ _ _ _ _ _ ",
"_ _ _ _ _ _ _ _ _ _ _ _ 0 >XOX X_.*X{.1 E.:Xq U D m _ _ _ _ _ _ ",
"_ _ _ _ _ _ _ _ _ _ _ _ !.& 1 /.{.4X:X~.*X,X.X}.N H _ _ _ _ _ _ ",
"_ _ _ _ _ _ _ _ _ _ !.y h y.L < /.=X4X4X,X4X|.A &._ _ _ _ _ _ _ ",
"_ _ _ _ _ _ _ _ W.r h a.h.N.j.q.s ^.1X1X/.*XB J _ _ _ _ _ _ _ _ ",
"_ _ _ _ _ _ _ 0.y y.e.M.V.l.b.f.q.a a a p o f d &._ _ _ _ _ _ _ ",
"_ _ _ _ _ _ K d u.8.i.n.g.v.k.b.x.B.g.t.r.w.p.< u._ _ _ _ _ _ _ ",
"_ _ _ _ _ N I *XF i t g t.z.l.v.v.k.c.B.t.8.i.d F _ _ _ _ _ _ _ ",
"_ _ _ _ 0 R.3XS I 5XQ.= i.t.l.l.v.V.M.n.h r 0.&XU N _ _ _ _ _ _ ",
"_ _ _ n R.-XD &.4X2X#Xp i.t.l.l.v.h.n.g !._ G H |.&.1 O Z _ _ _ ",
"_ _ _ > / 3X3XZ K 5X#Xr s.t.B.v.v.c.n.y !._ _ W S <X|.|.R.0 _ _ ",
"_ _ _ _ q S ;XZ H 3X#Xt s.s.m.8.t.8.d.y L._ _ ) V -XR.q ).$ _ _ ",
"_ _ _ _ _ Z . P.%X%X!.* 0.0.0.9.@X$XD.; _ _ _ _ ) Z J.X n _ _ _ ",
"_ _ _ _ _ _ _ _ L.%XW.u I.! S.Z.S.F.F.K.4 _ _ _ _ _ O C _ _ _ _ ",
"_ _ _ _ _ _ _ _ %XF.j A.S.K.E 4 ; l ! ! H.c _ _ _ _ _ _ _ _ _ _ ",
"_ _ _ _ _ _ _ _ U.- A.A.H.b c L._ L.z R L.L.v _ _ _ _ _ _ _ _ _ ",
"_ _ _ _ _ _ _ _ C.j Z.Z.E T _ _ _ _ T E G._ T _ _ _ _ _ _ _ _ _ ",
"_ _ _ _ _ _ _ J.j K.! v v _ _ _ _ _ x ( H._ R ( _ _ _ _ _ _ _ _ ",
"_ _ _ _ _ _ ^ k Y.P.Y.J.4 _ _ _ _ _ T _ _ _ _ ( % J._ _ _ _ _ _ ",
"_ _ _ _ _ L.M M (.P.(.~ 5 _ _ _ _ _ x _ _ _ _ _ M H _ _ _ _ _ _ "
};
