/* XPM */
static char *_6f9f1dbe6384e9afdcccd8fb35b1c96HckoVIm5tyTWB818[] = {
/* columns rows colors chars-per-pixel */
"32 32 246 2 ",
"   c #007A00",
".  c #007E00",
"X  c #007F00",
"o  c #F32200",
"O  c #F12E00",
"+  c #F23500",
"@  c #F53006",
"#  c #F33404",
"$  c #F13E00",
"%  c #F24400",
"&  c #F64500",
"*  c #F94400",
"=  c #F74C00",
"-  c #F64F00",
";  c #F94A00",
":  c #F45300",
">  c #FD5000",
",  c #FE5300",
"<  c #F85400",
"1  c #FB5600",
"2  c #FD5700",
"3  c #FF5600",
"4  c #F95605",
"5  c #FF5607",
"6  c #FD5B00",
"7  c #FF5A00",
"8  c #FE5B00",
"9  c #FC5F00",
"0  c #FE5D02",
"q  c #FD530C",
"w  c #FD4E15",
"e  c #F8451E",
"r  c #F76301",
"t  c #FD6000",
"y  c #FD6100",
"u  c #FE6200",
"i  c #FD6600",
"p  c #FD6800",
"a  c #FD6A00",
"s  c #FE6D01",
"d  c #FD7001",
"f  c #FD7200",
"g  c #EE5A27",
"h  c #EE6334",
"j  c #FD7934",
"k  c #F1723B",
"l  c #FE7A3D",
"z  c #FC7E3C",
"x  c #F97547",
"c  c #008000",
"v  c #008200",
"b  c #008300",
"n  c #008400",
"m  c #008600",
"M  c #008700",
"N  c #008800",
"B  c #008900",
"V  c #008A00",
"C  c #008B00",
"Z  c #008C00",
"A  c #008D00",
"S  c #008E00",
"D  c #008F00",
"F  c #009000",
"G  c #009100",
"H  c #009200",
"J  c #009300",
"K  c #009400",
"L  c #009500",
"P  c #009600",
"I  c #009700",
"U  c #009800",
"Y  c #009900",
"T  c #009A00",
"R  c #009B00",
"E  c #009C00",
"W  c #009D00",
"Q  c #009E00",
"!  c #009F00",
"~  c #019F01",
"^  c #0A940A",
"/  c #099909",
"(  c #089A08",
")  c #128512",
"_  c #128812",
"`  c #129312",
"'  c #129412",
"]  c #129612",
"[  c #129712",
"{  c #129812",
"}  c #129912",
"|  c #129A12",
" . c #129B12",
".. c #129C12",
"X. c #129D12",
"o. c #129E12",
"O. c #129F12",
"+. c #1D9F1D",
"@. c #00A000",
"#. c #00A100",
"$. c #00A200",
"%. c #00A300",
"&. c #00A400",
"*. c #00A500",
"=. c #00A600",
"-. c #00A700",
";. c #04A204",
":. c #00A800",
">. c #00A900",
",. c #00AA00",
"<. c #00AB00",
"1. c #00AC00",
"2. c #00AD00",
"3. c #00AE00",
"4. c #00AF00",
"5. c #0DA50D",
"6. c #0BA90A",
"7. c #0BAC0A",
"8. c #0EAD0E",
"9. c #00B000",
"0. c #00B100",
"q. c #00B200",
"w. c #00B300",
"e. c #00B400",
"r. c #00B500",
"t. c #00B600",
"y. c #00B700",
"u. c #00B800",
"i. c #08B208",
"p. c #0DB40D",
"a. c #0DB70D",
"s. c #0DB90D",
"d. c #12A012",
"f. c #12A112",
"g. c #12A212",
"h. c #12A312",
"j. c #12A412",
"k. c #12A512",
"l. c #12A612",
"z. c #12A712",
"x. c #12A812",
"c. c #12A912",
"v. c #12AA12",
"b. c #12AB12",
"n. c #12AC12",
"m. c #12AD12",
"M. c #12AE12",
"N. c #12AF12",
"B. c #16A916",
"V. c #12B012",
"C. c #12B212",
"Z. c #12B312",
"A. c #12B412",
"S. c #12B512",
"D. c #12B612",
"F. c #12B712",
"G. c #12B812",
"H. c #12B912",
"J. c #12BA12",
"K. c #12BB12",
"L. c #249724",
"P. c #289A27",
"I. c #2C972C",
"U. c #27A527",
"Y. c #26B126",
"T. c #23BD23",
"R. c #23BE23",
"E. c #23BF23",
"W. c #3EA339",
"Q. c #40B83D",
"!. c #12C212",
"~. c #3CC83D",
"^. c #50A94B",
"/. c #43BA43",
"(. c #5ABA4A",
"). c #64A95C",
"_. c #67BB68",
"`. c #6AC453",
"'. c #60C15F",
"]. c #6EC568",
"[. c #7FC072",
"{. c #F4852B",
"}. c #FB862F",
"|. c #FB8A3F",
" X c #86B665",
".X c #B8A96B",
"XX c #A1BB62",
"oX c #C28445",
"OX c #DB924B",
"+X c #DC904B",
"@X c #CE9D5E",
"#X c #F6814A",
"$X c #C5AA5F",
"%X c #C8B05D",
"&X c #D59B6D",
"*X c #D79E6E",
"=X c #EB8C64",
"-X c #E4896B",
";X c #F09767",
":X c #FD9864",
">X c #CAA56E",
",X c #D3A263",
"<X c #DAA266",
"1X c #C2AF79",
"2X c #F9A76B",
"3X c #F9AA6F",
"4X c #F9AA72",
"5X c #82CC71",
"6X c #9FC379",
"7X c #AFC177",
"8X c #ADC87E",
"9X c #B1C17D",
"0X c #DFBF95",
"qX c #FAB081",
"wX c #F8B987",
"eX c #FCB188",
"rX c #9ACC89",
"tX c #9DD699",
"yX c #A8C88D",
"uX c #BACA95",
"iX c #A2DB9E",
"pX c #D1CAAA",
"aX c #D5CFA9",
"sX c #DFC6B6",
"dX c #E0C2B4",
"fX c #F7CFB1",
"gX c #F8CFB4",
"hX c #F6D7BB",
"jX c #D9DFD3",
"kX c #F5D9C4",
"lX c #DBE4CA",
"zX c #C2EDE1",
"xX c #D8E1E4",
"cX c #D3EBE6",
"vX c #D6EFF9",
"bX c #D9F9FF",
"nX c #E3EFF0",
"mX c #EFFAF5",
"MX c #E4FAFF",
"NX c #F6F5F0",
"BX c #F3FAFA",
"VX c #F4F9F8",
"CX c #F2FFFF",
"ZX c #F3FFFF",
"AX c #F4FFFF",
"SX c #F5FFFF",
/* pixels */
"T.S.J.k.} S.k.h.N.K.J.F.F.J.o.v.o.k.' ' d.N.k.N.k.J.F.F.F.F.F.T.",
"p.Y ! C #.t.! Y Y Y ! 4.t.#.L :.! L A ! L :.L L t.w.-.A w.w.w.p.",
"k.! J L ! Y Y Y C L C #.#.-.L L ! #.#.-.#.m #.! w.w.#.L ! t.A v.",
"..L L ! :.:.-.! C :.:.4.Y L A :.-.-.4.L J ! :.w.#.J t.L Y L C o.",
"M.:.#.w.w.t.t.-.L #.L :.L C w.:.! Y Y -.w.w.:.:.:.m ! L ! . L d.",
"J.4.4.4.C 4.w.Y Y L Y Y Y Y #.J ! . J A -.4.#.Y #.L :.:.! L :.J.",
"S.J A J J -.L #.#.4.Y ! 4.L w.:.! L :.Y #.L #.C ! #.w.:.:.u.-.F.",
"J.#.L A L ! A Y L . J Y J ! Y ! w.t.t.4.t.#.#.#.L #.w.#.Y #.L C.",
"S.#.4.4.-.m ! L Y C #.A Y J ^.,XoX>X].#.:.C 4.-.L 4.L ! m ! #.F.",
"V.C Y w.m J -.! L #.4.4.:.J 7X; % O 8XA L Y Y J #.#.Y :.-.w.w.F.",
"S.L L J ! -.w.w.w.t.w.4.! / %X5 9 # 1X^ 4.#.-.#.Y Y w.:.-.t.w.F.",
"J.-.t.Y Y 4.:.4.! t.#.Y J U.lXhXfXsXjXF.w.w.w.-.A #.w.Y Y L Y F.",
"V.#.t.! L J b J C ! Y ! ! /.mXCXCXbXcX+.L L J J A #.L ! C C J N.",
"M.C ! L Y ! L C J Y L A 4.`.z 4XwX=Xh W.Y L L J #.4.:.4.L #.4.J.",
"S.Y -.Y m ! :.Y J Y -.-.! XX6 y 6 & +  XL L Y w.t.w.:.#.u.w.#.C.",
"J.#.Y #.J -.L #.b A Y -.7.+X, p y - o @X8.#.4.w.w.w.#.A :.#.J k.",
"M.Y Y m J -.#.J A :.w.L I.gX4X|.j k -XpXY.! 4.w.:.J L -.-.  m v.",
"h.#.C J J w.w.L ! :.-.A _.CXSXBXNXnXvXzXL.Y 4.! Y L m L Y L #.!.",
"S.w.4.t.! -.u.#.#.:.:.:.rXkXVXSXSXMXxXdX).Y ;.E Y A A #.w.w.w.F.",
"J.:.L #.A L :.! Y :.u.;.$Xq }.2XqX;Xg @ 0XN.! ;.m b m -.-.w.w.F.",
"J.-.C A J :.J L J P.5X9X{.i p 6 3 ; % $ #X8X_.5.C Y Y Y Y 4.w.F.",
"V.! 4.! A #.4.L L tX:Xw 3 p f f s r : 1 * e &XA J :.A L Y w.w.F.",
"M.A -.! J b ! A Y B.'.uXeXl 9 6 9 1 4 x .X(.6.#.L L L L :.w.4.F.",
"S.L #.C Y A C C #.L b / ~.iXaX<X+X*XyXQ.i.4.:.L J ! L J :.#.Y J.",
"K.J Y L L m ! Y L Y m J -.Y L C J C L t.:.:.:.! L ! L ! m -.! J.",
"J.-.-.#.L C -.! #.C J ! ! #.C J C C m Y -.A ! #.4.:.Y J -.:.4.F.",
"h.-.t.#.Y J ! L Y m ! #.Y t.w.:.L L J ! -.L J L t.w.! w.#.#.t.F.",
"} L -.Y Y m J :.-.! #.! A #.A C A C 4.:.Y Y Y C -.#.! J Y Y w.C.",
"h.:.! #.A J C #.! Y J L Y :.m C . L -.J #.m A ! ! C J m -.4.Y o.",
"x.-.t.t.! A 4.J A #.:.L ! -.m L L ! :.J Y -.#.:.J Y ! ;.Y #.J d.",
"s.! L ! A L :.! L ! -.Y Y J L :.w.-.#.w.w.t.! :.#.:.L E n 5.#.5.",
"!.x._ [ k.M...` o.v.d.k.) ` k.F.J.d.o.' v.J.} o.F.J.M.M.M.G.F.!."
};
